<?xml version="1.0" encoding="UTF-8"?>
<svg width="335px" height="512px" viewBox="0 0 335 512" version="1.1" xmlns="http://www.w3.org/2000/svg" xmlns:xlink="http://www.w3.org/1999/xlink">

<style type="text/css">
.head {
 fill: #FFE330;
}
.hand {
 fill: #FFE330;
}
.torso {
 fill: red;
}
.arm {
 fill: red;
}
.legs {
  fill: blue;
}


.figure__arm,
.figure__torso {
  fill: orange;
}

.figure__head,
.figure__hand {
  fill: tan;
}

.figure__legs {
  fill: green;
}
</style>

<g class="figure">

  <g class="head figure__head">
    <path d="M204.66,119.315007 L204.66,133.42 L129.43,133.42 L129.43,119.839476 C118.402386,118.531025 109.42542,114.327287 105.68,102.71 L105.68,100.77 L105.56,100.77 L105.56,39.31 L105.68,39.31 L105.68,36.02 C110.3,21.69 122.88,18.64 137.45,18.39 L193.77,18.39 C209,18.48 223.22,20.34 228.45,37.12 L228.45,37.89 L228.5,37.89 L228.47,37.89 L228.47,101.72 L228.42,101.72 L228.42,102.19 C224.472892,114.136984 215.422347,118.069977 204.66,119.315007 Z M138.12,0 L193.96,0 L193.96,18.38 L138.12,18.38 L138.12,0 Z"/>
    <g fill="#3B3939">
      <circle cx="146.04" cy="59.24" r="8.17"></circle>
      <circle cx="188.49" cy="59.24" r="8.17"></circle>
      <path d="M184.47,84.93 C181.735153,86.2507649 178.90766,87.3703989 176.01,88.28 C173.028038,89.1917526 169.928219,89.6600947 166.81,89.67 C164.159673,89.6486759 161.521234,89.3129966 158.95,88.67 C155.73915,87.8721522 152.61675,86.7531803 149.63,85.33 C148.842602,84.8973624 147.879508,84.9407314 147.134183,85.4423889 C146.388857,85.9440465 145.986133,86.8199719 146.09054,87.7123111 C146.194947,88.6046503 146.789,89.3639489 147.63,89.68 C150.906397,91.2370225 154.330036,92.4631009 157.85,93.34 C160.795606,94.0631301 163.816939,94.4324041 166.85,94.44 C170.428894,94.4302954 173.986924,93.8945692 177.41,92.85 C180.540369,91.8836826 183.592541,90.6801976 186.54,89.25 C187.381,88.9339489 187.975053,88.1746503 188.07946,87.2823111 C188.183867,86.3899719 187.781143,85.5140465 187.035818,85.0123889 C186.290492,84.5107314 185.327397,84.4673624 184.54,84.9 L184.47,84.93 L184.47,84.93 Z"/>
    </g>
  </g>

  <path class="arm figure__arm figure__arm--left" d="M21.7740817,255.687021 L36.25,204 L70.07,151.4 C70.07,151.4 85.35,132.43 106.76,138.91 L66.6910931,266.363119 C66.6793232,266.452882 66.6623201,266.541858 66.64,266.63 C65.66,270.5 54.79,271.27 42.36,268.36 C29.93,265.45 20.64,259.95 21.63,256.09 C21.6654713,255.951698 21.7136261,255.817363 21.7740817,255.687021 Z"/>
  <path class="arm figure__arm figure__arm--right" d="M268.462687,266.311729 L228.4,138.91 C249.82,132.4 265.1,151.4 265.1,151.4 L298.92,204 L313.397434,255.692434 C313.457022,255.821081 313.504666,255.953611 313.54,256.09 C314.52,260 305.24,265.45 292.81,268.36 C280.38,271.27 269.5,270.49 268.52,266.63 C268.493364,266.525086 268.474307,266.418967 268.462687,266.311729 Z"/>
  <path class="torso figure__torso" d="M264.86,288.9 L235.79,142.9 C235.79,136.95 230.45,132.06 223.58,131.4 L223.58,131.32 L223.5,131.39 C223.02,131.39 222.5,131.32 222.02,131.32 L111.57,131.32 C104.31,131.65 98.57,136.69 98.57,142.87 L70.44,288.87 L264.94,288.87 L264.86,288.9 Z"/>
  <path fill="#000000" fill-opacity="0.5" d="M313.54,256.09 C312.54,252.23 301.68,251.46 289.25,254.37 C276.82,257.28 267.54,262.77 268.52,266.63 C269.5,270.49 280.38,271.27 292.81,268.36 C305.24,265.45 314.52,260 313.54,256.09 L313.54,256.09 Z"/>
  <path fill="#000000" fill-opacity="0.5" d="M42.36,268.36 C54.79,271.27 65.66,270.5 66.64,266.63 C67.62,262.76 58.35,257.28 45.92,254.37 C33.49,251.46 22.62,252.23 21.63,256.09 C20.64,259.95 29.93,265.45 42.36,268.36 Z"/>

  <path class="hand figure__hand figure__hand--right" d="M311.943598,272.892099 C318.876353,274.878753 325.073173,279.253929 329.268909,285.524974 C336.542122,296.39569 336.255016,310.65095 328.55,321.22 C328.19,321.42 325.21,323.43 323.12,323.09 C316.56,322 319.69,311.77 319.56,304.23 C319.921237,302.072325 319.836151,299.863492 319.31,297.74 C318.289243,293.534011 315.638598,289.906203 311.941774,287.655473 C308.244951,285.404744 303.805121,284.715671 299.6,285.74 L299.22,285.84 L298.84,285.92 C293.52264,287.217357 289.208837,291.092333 287.350638,296.24059 C285.492439,301.388846 286.336986,307.125664 289.6,311.52 C292.95,318.28 300.46,325.9 295.11,329.9 C293.42,331.17 289.83,330.74 289.42,330.74 C277.71788,324.890366 270.913955,312.355666 272.384453,299.355841 C273.03544,293.600837 275.246728,288.29692 278.612251,283.90467 L274.64,264.2 C289.55,252 307.55,256.11 307.55,256.11 L311.943596,272.892098 Z"/>
  <path class="hand figure__hand figure__hand--left" d="M23.219159,272.909112 L27.61,256.11 C27.61,256.11 45.61,252 60.53,264.2 L56.5619177,283.883993 C59.1997854,287.316847 61.1507721,291.33771 62.187,295.765 C65.474,309.813 58.691,324.281 45.79,330.74 C45.37,330.75 41.81,331.17 40.1,329.9 C34.75,325.91 42.26,318.28 45.61,311.52 C48.862558,307.122851 49.7010421,301.390593 47.8441895,296.246066 C45.987337,291.101539 41.6811107,287.2262 36.37,285.92 L35.99,285.84 L35.61,285.74 C31.4048795,284.715671 26.9650493,285.404744 23.2682258,287.655473 C19.5714024,289.906203 16.9207566,293.534011 15.9,297.74 C15.3738491,299.863492 15.2887631,302.072325 15.65,304.23 C15.52,311.77 18.67,322 12.09,323.09 C10,323.43 7.02,321.42 6.65,321.22 C1.24487536,313.816245 -0.621068659,304.406033 1.55,295.5 C4.24595194,284.415764 12.6767479,275.941116 23.219159,272.909112 Z"/>

  <g class="legs figure__legs">
    <path d="M71.59,313.84 L71.42,512 L163.79,512 L163.79,370.84 C166.37501,371.631832 169.14463,371.582813 171.7,370.7 L172,512 L264.34,512 L263.9,313.84 L71.59,313.84 L71.59,313.84 Z"/>
    <path fill="#000000" fill-opacity="0.4" d="M171.7,487.06 L263.9,487.06 L263.9,512 L171.7,512 L171.7,487.06 Z M71.59,487.06 L163.79,487.06 L163.79,512 L71.59,512 L71.59,487.06 Z"/>
    <path fill="#000000" fill-opacity="0.1" d="M72.26,315.26 L163.79,315.26 L163.79,398.38 L72.26,398.38 L72.26,315.26 Z M172,315.26 L263.53,315.26 L263.53,398.38 L172,398.38 L172,315.26 Z"/>
    <path d="M255.89,288.9 L71.42,288.9 L71.42,314.24 L157.51,314.24 L157.51,373.33 C157.684364,378.95644 162.295859,383.427238 167.925,383.427238 C173.554141,383.427238 178.165636,378.95644 178.34,373.33 L178.34,314.24 L264.34,314.24 L264.34,288.9 L255.89,288.9 L255.89,288.9 Z"/>
    <polygon fill="#000000" fill-opacity="0.2" points="231.6 305.45 71.59 305.45 71.59 315.5 263.9 315.5 263.9 305.45"></polygon>
  </g>

</g>

</svg>
